P1
# Created by GIMP version 3.0.2 PNM plug-in
# Image credit: @kokoscript
178 128
0000000000000000000000000000000000000000000000000000000000000000000000
0000000000000000000000000000000000000000000000000000000000000000000000
0000000000000000000000000000000000000000000000000000000000000000000000
0000000000000000000000000000000000000000000000000000000000000000000000
0000000000000000000000000000000000000000000000000000000000000000000000
0000010000000000000000000000000000000000000000000000000000000000000000
0000000000000000000000000000000000000000000000000000000000000000000000
0000000000000000000000000000000000000000000000000000000000000000000000
0000000000000000000000000000000000000000000000000000000000000000000000
0000000000000000000000000000000000000000000000000000000000000000000000
0000000000010000000000000110000000000000000000000000000000000000000000
0000000000000000001100000001000000000000000000000000000000000000000000
0000000000000000000000000000000000000000000000000000000000000000100000
0000000000100100000000000000000000000000000000000000000100000000000000
0000000000000000000000000000000000000000000000000000000000000000000000
0000000000000000010000000000000010000110111000110000100000000000011111
0001011110000000000000010000000011000001011100000111100000000000000000
0000000000000000000000000000000000000000000000000000000000000000000000
1000011000010011001010000000000010000010010000010000000000010110000000
0100001100001001100001000000000000000000000000000000000000000000000000
0000000000000000000000010000000000000010000110000100110100100000000000
1100001001000011000000000000010000000001000001000000011111110000000000
0000111100000000000000000000000000000000000000000000000000000000000000
0000001000011000010011000010000000000010000010010000010000000000000100
0000000100001100000001100000000000000000000111100000000000000000000000
0000000000000000000000000000010000000000000010000111000100001001000000
0000001100011001000011000000000000010000000001000001000000011000010000
0000000000011111000000000000000000000000000000000000000000000000000000
0000000000111110011011100000011000000000000001111100010000010000000000
0001000000011111001100000000011110000000000000000011111000000000000000
0000000000000000000000000000000000010000000000000000000110000000000000
0000000000000000000000000000000000000000000000000000000000000000000000
0000000000000000001101111000000000000000000000000000000000000000000000
0000000000000000000000000000000000000000000000000000000000000000000000
0000000000000000000000000000000000000000000000000000000011000110000000
0000000000000000000000000000000000000000010000000000000000000000000000
0000000000000000000000000000000000000000000000000000000000000000000000
0000000000000000000000001110011110000000000000000000000000000000000000
0000000000000000000000000000000000000000000000000000000000000000000000
0000000000000000000000000000000000000000000000000000000000000011100011
1000000000000000000000000000000000000000000000010000000000000000000000
0000000000000000000000000000000000100000000000000000000000000000000000
0000000000000000000000000000000110000111000000000000000000000000000000
0000000000000000000000000000000000000000000000000000000000000000000000
1111110000000000000000000000000000000000000000000000000000000000000001
1000001110000000000000000000000000000000000000000000010000000000000000
0000000000000000000000000000000000000001101111000000000000000000000000
0000000000000000000000000000000000000110000001100000000000000000000000
0000000000000000000000000000000000000000000000000000000000000000000000
0000000110001110000000000000000000000000000000000000000000000000000000
0000011100000111000000000000000000000000000000000000000000010000000000
0000000000000000000000000000000000000000000001110000111000000000000000
0000000000000000000000010000000000000000000011000000110000000000000000
0000000000000000000000000000000000000000000000000000000000000000000000
0000000000000011000001110000000000000000000000000000000000000110000000
0000000000001100000011000000000000000000000000000000000000000000010000
0000000000000000000000000000000000000000000000000000110000001110000000
0000000000000000000000000011001000000000000000000110000000111000000000
0000000000000000000000000000000000000000000000000000000000000000000000
0000000000000000000011100000011110000000000000000000000000000011100011
0000000000000000011000000011100000000000000000000000000000000000000000
0100000000000000000000000000000000000000000000000000000000111000000001
1000000000000000000000000000001100001100000000000000000110000000011100
0000000000000000000000000000000000000000000000000000000000000000000000
0000000000000000000000000001100000000111100000000000000000000000000111
0000011000000000000000111000000001110000000000000000000000000000000000
0000000100000000000000000000000000000000000000000000000000000000011100
0000000111000000000000000000000000011000000010000000000000001100000000
0011000000000000000000000000000000000000000000000000000000000000000000
0000000000000000000000000000000000110000000000111100000000000000000000
0011100000001100000000000001110000000000111000000000000000000000000000
0000000000000100000000000000000000000000000000000000000000000000000000
0011000000000001110000000000000000000001110000000001100000000000111000
0000000001110000000000000000000000000000000000000000000000000000000000
0000000000000000000000000000000000000000111000000000001111000000000000
0000000111000000000011000000000011000000000000001100000000000000000000
0000000000000000000100000000000000000000000000000000000000000000000000
0000000011100000000000011100000000000000000011100000000000011000000001
1000000000000000111000000000000000110000000000000000000000000000000000
0000000000000000000000000000000000000000000000011000000000000011100000
0000000000001100000000000001100000001100000000000000000110000000000000
0111110000000000000000000100000000000000000000000000000000000000000000
0000000000000001100000000000001110000000000000000110000000000000011000
0000110000000000000000111000000000000001100110000000000000000000000000
0000000000000000000000000000000000000000000000000000011000000000000001
1100000000000000111000000000000001100000111000000000000000000110000000
0000000110001100000000000000000100000000000000000000000000000000000000
0000000000000000000001100000000000000111000000000000111100000000000000
0111000011000000000000000000011000000000000001100011100000000000000000
0000000000000000000000000000000000000000000000000000000000011000000000
0000001100000000000111000000000000000000110001100000000000000000000110
0000000000000110000110000000000000000100000000000000000000000000000000
0000000000000000000000000001100000000000000011100000000011100000000000
0000000011111100000000000000000000011100000000000001100011100000000000
0000000000000000000000000000000000000000000000000011000000000000011000
0000000000001110000000111100000000000000000000011100000000000000000000
0001110000000000000011000110000000000000000100000000000000000000000000
0000000000000000011100000000000001100000000000000001100000001100000000
0000000000000000000000000000000000000000001000000000000000110001110000
0000000000000000000000000000000000000000000000000000001111000000000000
1110000000000000000111000001110000000000000000000000000000000000000000
0000000000110000000000000011000111000000000000000100000000000000000000
0000000000000000000001101100000000000011001110000000000001110000011110
0000000000000000000000000000000000000000000000001100000000000000110000
1100000000000000000000000000000000000000000000000000000000110011000000
0000001100011100000000000111000001111000000001110000000000000000000000
0000000000000000110000000000000011000011100000000000000100000000000000
0000000000000000000000000110001100000000000011000011100000000001110000
0111110000011111111000000000000000000000000000000000001100000000000000
1100001110000000000000000000000000000000000000000000000000000001000011
1000000000001100000110000000000111000001111100001110111111100000000000
0000000000000000000000110000000000000011000001100000000000000100000000
0000000000000000000000000000001100001110000000000011000001110000000001
1100000011100000110001111111000000000000000000000000000001111110000000
0000001100000110000000000000000000000000000000000000000000000000000110
0000011000000000001100000011100000000111000000011000001100001111111000
0000000000000000000000111111111100000000000010000001100000000000000100
0000000000000000000000000000000000110000000011000000000110000000111000
0000011100000011000001100000011111110000000000000000000001111111111001
1000000000001000000110000000000000000000000000000000000000000000000000
0110000000001100000000011000000011110000000110000000110000111000000111
1111100000000000000000111111111110000111000000000010000001110000000000
0001000000000000000000000000000000000001100000000011100000000100000000
1101100000000100000110000011100111101111111000000000000000111111111111
0000001110000000011000000110000000000000000000000000000000000000000000
0000011000000000000110000000110000000110011000000001100001000000110001
1001111111110000000000000111111111110000000001100000000110000001100000
0000000001000000000000000000000000000000001110000000000000110000001000
0000110000110000000110011100000011000110111100001100000111110011111111
1110000000000111000000010000000110000000000000000000000000000000000000
0000000001100000000000000011100001000000011000000110000000111100000000
1100001111110000011111110001111111111011000000000001110000001100000001
1000000000000001000000000000000000000000000001110000000000000000011000
1000000001100000011000000000000000000011000111100000000111110000001100
0000011111111000000111000001100000000110000000000000000000000000000000
0000000000011100000000000000000000111000000000011000000011000000000000
0000001111111000000000011000000000000000000110001100000001110000110000
0000011000000000000001000000000000000000000000011100000000000000000000
0000000000000001100000001100000000000001111111111000000000000000000000
0000000111111011100000000111111100000000001110000000000000000000000000
0000000000000110000000000000000000000000000000000000001000000011100000
0000000011100000000000001100000000000000110111111000110000000001110000
0000000000111000000000000001000000000000000000000110000000000110000000
0000000000000000000000110000000110000000000000011100000000011100000000
0000000011111111000000111000000111000000000000001110000000000000000000
0000000000000001100000000000111000000000000000000000000000000100000001
1100000000000000111110000011100000000000000000000011100000100011000001
1100000000000000111000000000000001000000000000000000100000000000011110
0000000000000000000000000000011000000011000000000000000011111001110000
0000000000100000001110000011111110001110000000000000000110000000000000
0000000000000000001110000000000011011000000000000000000000000000000110
0000001100000000000000000111111111000000000000011100000001110000110000
0001111000000000000000011000000000000001000000000000000010000000000000
1001100000000000000000000000000000000100000011100000000000000001101101
1100000000000000110000000111100010000000011100000000000000000111000000
0000000000000000000000010000000000000010001100000000000000000000000000
0000000000000100000000000000000011100011000000000000001110000001111111
1000000011110000000000000000011100000000000001000000000000001100000000
0000001000011000000000000000000000000000000000000000000000000000000000
0110001100000000000000111110000110011110000001111000000000000000000011
0000000001100000000000000000100000000000000010000011000000000000000000
0000000000000000000000000000000000000001100001100000000000001100110011
1000110000000111111100000000000000001110000000111101000000000000001000
0000000000001100000110000000000000000000000000000000000000000000000000
0000001100000011100000000001110001111100000110000011100001110000000000
0000011000000111110000000000000000100000000000000000000000000000000000
0000000000000000000000000000000000000000000011000000001110000001110000
0011100000001100111100000001110000000000000000000011011101000000000000
0011000000000000000000000000000000000000000000000000000000000000000000
0000000000000100100000011100001110000000000000000011111110000000001111
0000000000000000111001110000000000000000110000000000000000000000000000
0001111110000000000000000000000000000000000000000011100110000011101110
0000000000000000000111110000000000001111111100000000111000011101000000
0000000011000000000000000000000000011111111100111000000000000000000000
0000000000000001111110011100000111100000100000000000000000111100000000
0000001111111110000000000001110000000000000000110000000000000000000001
1111110000000000110000000000000000000000000000111111111001101110000000
1000000001100000000000000000111000000000000000111111100000000000011101
0000000000000011000000000000000011111100000000000000000011000001111000
0000000000000111111000000010011000000000000000011110000000000000000011
1000000111111111110000000000000001100001111000000000110000000000001111
1100000000000000000000000111111000111110000000000000111100000011000000
0000000000000001110000000000000000100111100001111111100000000000000000
1110010111111000000111000000000001100000000000000000000000000000111000
0000001111100000000000111100111000000000000000000000011100000000000000
0111111111100000110000000000000000000011100001100111001111000000000000
0011100000000000000000000000000000111000000000001111000000001111011001
1111110000000000000000000000000000000000011110000000001100000000000000
0000011100010110000111110000000000000000001110000000000000000000000000
0001100101000000000011100111100001100001111000000000000000000000000000
0111111000011111000000111000000000000000000111000000110000000000000000
0000000000011100000000000000000000000000011111111000000000011101111000
0010000000000000000000000000000000000001111000000001111110001110000000
0000000000011000010011100000000000000000000000000001100000000000000000
0000011111111110000000000001110000111100110000000011110000111100000000
0000000001110000000000111111111000000000000000000110000000011000000000
0000000000000000001111000000000000000000111111111100000000000000001110
0000111111100000000111111111111000000000000000000111100000000001111110
0000000000000000011000010001110000000000000000000000001111011000000000
0000011111111100000000000000001101110000000001101110000000111111111110
0000000000000011111110000000111111111000000000000000001110000000001110
0000000000000000000011110000110000000011111111111000000000000000000111
0011000000001111111100000000111000111000000000000001111101001111111111
0111000000000000000000111000010000011000000000000000000111100000000110
0111111111111000000000000000000000000110110000000011110001110000000110
0011100000000000000110000111111110000001110000000000000000001110000000
0001100000000000000000110000000000011111111110000000000000000000000000
0000111011100000000000000001100000000110111000000000000111000000011100
0000001110000000000000000000111000010000011100000000000000001100001000
1001111000000000000000000000000000000000000000111110100000000000000111
0000000111100000000001110100000110111000000011000000000000000000001100
0000000000110000000000000000110000011111111000000000000000000000000000
0000000000000011111111000000000000011111000000000000000001111011110001
1111111100001100000000000000000000110000010000001110000000000000011000
0000000011111000000000000000000000000000011111000000111111111000000000
0011111110000000000000111111111111110011111111111011100000000000000000
0110000000000000111000000000001111100000000000000011110000000000000000
0000001111000110000111111111100000000000111111111111111111111111111111
1111111110000011111100000000000000000011100000010000000110000000000111
1110000000000000000001100000000000000000011110000001100000111111111100
0000000111111111111111111111111111111111111111100000000111000000000000
0000111100000000000000011000000000001111100000000000000000010000000000
0000001111000000000111000011111111110000000001111111011111111111111111
1111111111111110000000000000000000000000111100000000010000000111000000
0011111110000000000000000001000000000000111110000000000000110000111111
1111100000001111111101100101111111111111111111111111110000000000000000
0000011111000000000000000000001100000001111111100000000000000000010000
0000001110000000000000000011000011111111111100000111011111011001001100
1011010001111111000011100000000000000000011110000000000000010000000011
1000111111111110000000000000000001100000000110000000000000000000110000
1111111111111000011001111011101100010000110100011101000000001110000000
0000000000100000001100000000000000000011111111111111100000000000000000
0110000000010000000000000000000011011111111111111000001110111100110010
0101010010011011110111000000011110000000000000000000000111100000010000
0000000111111111111110000000000000000001100000000100000000000000000001
1101111111111110000011100111110011001001001100101100111100111000000001
1000000000000000000000110110000000000000000000111111111111100000000000
0000000110000000010000000000000000000011011111111111000001111001111100
0101111100110000110011111001110000000111000000000000000000111001100000
0100000000011111111111111111000000000000000001100000000100000000000000
0000011101111111110000000111011111111111111111111110111000111110001110
0000000111000000000000001110000010000000000000000011111111111111110000
0000000000000110000000010000000000000000001111111111111111111100011111
1111111111111111111111111111111000001100000000111000000000000000000000
1000000100000000011111111111111111000000000000000000100000001100000000
0000001111111111111111111111111111011111111111111111111111111111111110
1111111000000001111101000000000000000111000000000000000111111111111111
1111000000000000000000000000010000000000011111111111111111111111000111
1111111000010111111111111111111111111111111111000000001111111100000000
0000011000000100000000001111111111111111111100000000000000000000000100
0000111111111111111111111111111100000000000000000000000000000000001111
1111111111111110000000000000111000000000001110000000000000000000111111
1111111111111110000000000000000000011111111111111111111111111111111111
0000000000000000000000000000000000000000111111111111111100000110111110
0000000001110000000100000000000111111111111111111111111110000000000000
1111111111111111111111111111001111111111101000000000000000000000000000
0000000111111111111101011111111111000000000000011100000000000000000000
0111111111111111111111111111000000111111111111111111111111111111110000
0000001111111111111100000000000000000000000001111111111111100000000000
0000000000000001100000000100000000000001111111111111111111111111111111
1111111111111111111111111111111111100000000000000000011111111100000000
0000000000001111111111111110000000000000000000000000000000000000000000
0000000111111111111111111111111111111111111111111111111111111111111111
1100000000000000000000000000111111110000000000000111111111111111100000
0000000000000000000000000000000100000000000001111111111111111111111111
1111111111111111111111111110111111111100000000000000000000000000000000
1111111110000000011111111111111100000000000000000000000000000000000000
0000000000000111111111111111111111111111111111111111111111111111110011
1100000000000000000000000000000000000000000101111100001111111111111111
0000000000000000000000000000000000000100000000000001111111111111111111
1111111111111111111111111111110111100011000000000000000000000000000000
0000000000000000111111111110111111111100000000000000000000000000000000
0000000000000000000011111111111111111111111111111111111111111111111100
1110000000000000000000000000000000000000000000000000000000111111111000
0011110000000000000000000000000000000000000100000000000000000000111111
1111111111111111111111111111111111110000000000000000000000000000000000
0000000000000000000000000000011111111111111000000000000000000000000000
0000000000000000000000000000000011111100111111111111111111111111111111
0000000000000000000000000000000000000000000000000000000000000000000011
1111111111000000000000000000000000000000000000000100000000000000000000
0000000011111111111111111101111111100000000000000000000000000000000000
0000000000000000000000000000000000000111111111100000000000000000000000
0000000000000000000000000000000000000000000000111011110001101111001100
1000000000000000000000000000000000000000000000000000000000000000000000
0000000000000000000000000000000000000000000000000000000100000000000000
0000000000000000000000000000000000000000000000000000000000000000000000
0000000000000000000000000000000000000000000000000000000000000000000000
0000000000000000000000000000000000000000000000000000000000000000000000
0000000000000000000000000000000000000000000000000000000000000000000000
0000000000000000000000000000000000000000000000000000000000000000000000
0000000000000000000000000000000000000000000000000000000000000000000000
0000000000000000000000000000000000000000000000000000000000000000000000
0000000000000000000000000000000000000000000000000000000000000000000000
0000000000000000000000000000000000000000000000000000000000000000000000
0000000000000000000000000000000000000000000000000000000000000000000000
0000000000000000000000000000000000000000000000000000000000000000000100
1000001000010000010100101000000101001000000000100000001100001000000011
0000011000011001010001001010001110000000000000000000000000000000000000
0000000000000000000000000000000000010011000010000100010000001000000001
0000010010000010010010001000100100100010000000010000010010010010010001
0000000000000000000000000000000000000000000000000000000000000000000000
0000001000011000100001000000100000000100110001000000101000100001001010
0010000100100001000001000001001000100000000000000000000000000000000000
0000000000000000000000000000000000000000010010000010001010000000001010
0000011010001100000011000000000100110000000001000100000000010010010010
0100010000000000000000000000000000000000000000000000000000000000000000
0000000001001010101001001001000100100000000100010010000000101000100000
0010100010000100001001000001010000001010000000000000000000000000000000
0000000000000000000000000000000000000000000000000010100000011110010000
0010000000010001001000000010100000000100101000000001000001010000010100
0100100000010000000000000000000000000000000000000000000000000000000000
0000000000000001000001001000000100000010100000000100010000000000100100
1000010010010010000000000100000001001001001000000000000000000000000000
0000000000000000000000000000000000000000000000000000011010010010100001
0011110010100000011100001000000010001000110000100010001110001110000110
0100010100100000010000000000000000000000000000000000000000000000000000
0000000000000000000000000000000000000000000000000000000000000000000000
0000000000000000000000000000000000000000000000000000000000000000000000
0000000000000000000000000000000000000000000000000000000000000000000000
0000000000000000000000000000000000000000000000000000000000000000000000
0000000000000000000000000000000000000000000000000000000000000000000000
0000000000000000000000000000000000000000000000000000000000000000000000
0000000000000000000000000000000000000000000000000000000000000000000000
0000000000000000000000000000000000000000000000000000000000000000000000
0000000000000000000000000000000000000000000000000000000000000000000000
0000000000000000000000000000000000
